<mxfile host="app.diagrams.net" modified="2020-09-26T13:27:39.242Z" agent="5.0 (Windows NT 10.0; Win64; x64) AppleWebKit/537.36 (KHTML, like Gecko) Chrome/85.0.4183.121 Safari/537.36" etag="MRcfjeTr0nQdmB-Sa1IU" version="13.6.9" type="github">
  <diagram name="Page-1" id="03018318-947c-dd8e-b7a3-06fadd420f32">
    <mxGraphModel dx="8310" dy="4660" grid="1" gridSize="10" guides="1" tooltips="1" connect="1" arrows="1" fold="1" page="1" pageScale="1" pageWidth="1100" pageHeight="850" background="#ffffff" math="0" shadow="0">
      <root>
        <mxCell id="0" />
        <mxCell id="1" parent="0" />
        <mxCell id="rN2n2UMtnNxQBnkrzZtM-392" value="" style="rounded=0;whiteSpace=wrap;html=1;" vertex="1" parent="1">
          <mxGeometry x="1910" y="230" width="490" height="430" as="geometry" />
        </mxCell>
        <mxCell id="rN2n2UMtnNxQBnkrzZtM-379" value="" style="rounded=0;whiteSpace=wrap;html=1;" vertex="1" parent="1">
          <mxGeometry x="558" y="1150" width="5" height="350" as="geometry" />
        </mxCell>
        <mxCell id="rN2n2UMtnNxQBnkrzZtM-97" value="" style="rounded=0;whiteSpace=wrap;html=1;" vertex="1" parent="1">
          <mxGeometry x="550" y="60" width="550" height="180" as="geometry" />
        </mxCell>
        <mxCell id="rN2n2UMtnNxQBnkrzZtM-83" value="" style="rounded=0;whiteSpace=wrap;html=1;" vertex="1" parent="1">
          <mxGeometry width="1100" height="2300" as="geometry" />
        </mxCell>
        <mxCell id="rN2n2UMtnNxQBnkrzZtM-52" value="" style="rounded=0;whiteSpace=wrap;html=1;" vertex="1" parent="1">
          <mxGeometry x="170" y="1000" width="770" height="60" as="geometry" />
        </mxCell>
        <mxCell id="rN2n2UMtnNxQBnkrzZtM-1" value="" style="rounded=0;whiteSpace=wrap;html=1;" vertex="1" parent="1">
          <mxGeometry width="550" height="240" as="geometry" />
        </mxCell>
        <mxCell id="rN2n2UMtnNxQBnkrzZtM-2" value="" style="rounded=0;whiteSpace=wrap;html=1;" vertex="1" parent="1">
          <mxGeometry x="550" width="550" height="240" as="geometry" />
        </mxCell>
        <mxCell id="rN2n2UMtnNxQBnkrzZtM-3" value="" style="rounded=0;whiteSpace=wrap;html=1;" vertex="1" parent="1">
          <mxGeometry width="550" height="70" as="geometry" />
        </mxCell>
        <mxCell id="rN2n2UMtnNxQBnkrzZtM-4" value="&lt;font style=&quot;font-size: 24px&quot;&gt;Sorrento by the sea logo&lt;/font&gt;" style="text;html=1;strokeColor=none;fillColor=none;align=center;verticalAlign=middle;whiteSpace=wrap;rounded=0;" vertex="1" parent="1">
          <mxGeometry x="160" y="30" width="210" height="20" as="geometry" />
        </mxCell>
        <mxCell id="rN2n2UMtnNxQBnkrzZtM-5" value="" style="rounded=0;whiteSpace=wrap;html=1;" vertex="1" parent="1">
          <mxGeometry x="90" y="80" width="360" height="140" as="geometry" />
        </mxCell>
        <mxCell id="rN2n2UMtnNxQBnkrzZtM-6" value="&lt;font style=&quot;font-size: 18px&quot;&gt;Sorrento by the sea video&lt;/font&gt;" style="text;html=1;strokeColor=none;fillColor=none;align=center;verticalAlign=middle;whiteSpace=wrap;rounded=0;" vertex="1" parent="1">
          <mxGeometry x="220" y="130" width="100" height="50" as="geometry" />
        </mxCell>
        <mxCell id="rN2n2UMtnNxQBnkrzZtM-7" value="" style="rounded=0;whiteSpace=wrap;html=1;" vertex="1" parent="1">
          <mxGeometry x="550" width="550" height="40" as="geometry" />
        </mxCell>
        <mxCell id="rN2n2UMtnNxQBnkrzZtM-8" value="Home" style="text;html=1;strokeColor=none;fillColor=none;align=center;verticalAlign=middle;whiteSpace=wrap;rounded=0;" vertex="1" parent="1">
          <mxGeometry x="720" y="10" width="40" height="20" as="geometry" />
        </mxCell>
        <mxCell id="rN2n2UMtnNxQBnkrzZtM-9" value="Home" style="text;html=1;strokeColor=none;fillColor=none;align=center;verticalAlign=middle;whiteSpace=wrap;rounded=0;" vertex="1" parent="1">
          <mxGeometry x="780" y="10" width="40" height="20" as="geometry" />
        </mxCell>
        <mxCell id="rN2n2UMtnNxQBnkrzZtM-10" value="Home" style="text;html=1;strokeColor=none;fillColor=none;align=center;verticalAlign=middle;whiteSpace=wrap;rounded=0;" vertex="1" parent="1">
          <mxGeometry x="840" y="10" width="40" height="20" as="geometry" />
        </mxCell>
        <mxCell id="rN2n2UMtnNxQBnkrzZtM-11" value="" style="rounded=0;whiteSpace=wrap;html=1;" vertex="1" parent="1">
          <mxGeometry x="890" y="65" width="200" height="170" as="geometry" />
        </mxCell>
        <mxCell id="rN2n2UMtnNxQBnkrzZtM-12" value="&lt;font style=&quot;font-size: 18px&quot;&gt;Image&lt;/font&gt;" style="text;html=1;strokeColor=none;fillColor=none;align=center;verticalAlign=middle;whiteSpace=wrap;rounded=0;" vertex="1" parent="1">
          <mxGeometry x="950" y="105" width="80" height="70" as="geometry" />
        </mxCell>
        <mxCell id="rN2n2UMtnNxQBnkrzZtM-13" value="&lt;h1&gt;Heading&lt;/h1&gt;&lt;p&gt;Lorem ipsum dolor sit amet, consectetur adipisicing elit, sed do eiusmod tempor incididunt ut labore et dolore magna aliqua.&lt;/p&gt;" style="text;html=1;strokeColor=none;fillColor=none;spacing=5;spacingTop=-20;whiteSpace=wrap;overflow=hidden;rounded=0;" vertex="1" parent="1">
          <mxGeometry x="660" y="65" width="190" height="120" as="geometry" />
        </mxCell>
        <mxCell id="rN2n2UMtnNxQBnkrzZtM-17" value="" style="rounded=0;whiteSpace=wrap;html=1;" vertex="1" parent="1">
          <mxGeometry x="550" y="760" width="5" height="350" as="geometry" />
        </mxCell>
        <mxCell id="rN2n2UMtnNxQBnkrzZtM-19" value="" style="rounded=0;whiteSpace=wrap;html=1;" vertex="1" parent="1">
          <mxGeometry y="280" width="490" height="230" as="geometry" />
        </mxCell>
        <mxCell id="rN2n2UMtnNxQBnkrzZtM-21" value="" style="rounded=0;whiteSpace=wrap;html=1;" vertex="1" parent="1">
          <mxGeometry y="280" width="490" height="40" as="geometry" />
        </mxCell>
        <mxCell id="rN2n2UMtnNxQBnkrzZtM-22" value="&lt;font style=&quot;font-size: 18px&quot;&gt;Map Of Sorrento&lt;/font&gt;" style="text;html=1;strokeColor=none;fillColor=none;align=center;verticalAlign=middle;whiteSpace=wrap;rounded=0;" vertex="1" parent="1">
          <mxGeometry x="70" y="285" width="180" height="30" as="geometry" />
        </mxCell>
        <mxCell id="rN2n2UMtnNxQBnkrzZtM-24" value="" style="rounded=0;whiteSpace=wrap;html=1;" vertex="1" parent="1">
          <mxGeometry x="10" y="330" width="230" height="170" as="geometry" />
        </mxCell>
        <mxCell id="rN2n2UMtnNxQBnkrzZtM-25" value="Map of Sorrento&lt;br&gt;" style="text;html=1;strokeColor=none;fillColor=none;align=center;verticalAlign=middle;whiteSpace=wrap;rounded=0;" vertex="1" parent="1">
          <mxGeometry x="50" y="370" width="110" height="60" as="geometry" />
        </mxCell>
        <mxCell id="rN2n2UMtnNxQBnkrzZtM-27" value="&lt;h1&gt;&lt;font style=&quot;font-size: 18px&quot;&gt;Heading&lt;/font&gt;&lt;/h1&gt;&lt;p&gt;Lorem ipsum dolor sit amet, consectetur adipisicing elit, sed do eiusmod tempor incididunt ut labore et dolore magna aliqua.&lt;/p&gt;" style="text;html=1;strokeColor=none;fillColor=none;spacing=5;spacingTop=-20;whiteSpace=wrap;overflow=hidden;rounded=0;" vertex="1" parent="1">
          <mxGeometry x="270" y="330" width="190" height="120" as="geometry" />
        </mxCell>
        <mxCell id="rN2n2UMtnNxQBnkrzZtM-32" value="" style="rounded=0;whiteSpace=wrap;html=1;" vertex="1" parent="1">
          <mxGeometry x="610" y="280" width="490" height="230" as="geometry" />
        </mxCell>
        <mxCell id="rN2n2UMtnNxQBnkrzZtM-33" value="" style="rounded=0;whiteSpace=wrap;html=1;" vertex="1" parent="1">
          <mxGeometry x="610" y="280" width="490" height="40" as="geometry" />
        </mxCell>
        <mxCell id="rN2n2UMtnNxQBnkrzZtM-34" value="&lt;font style=&quot;font-size: 18px&quot;&gt;Pet friendly&lt;/font&gt;" style="text;html=1;strokeColor=none;fillColor=none;align=center;verticalAlign=middle;whiteSpace=wrap;rounded=0;" vertex="1" parent="1">
          <mxGeometry x="680" y="285" width="180" height="30" as="geometry" />
        </mxCell>
        <mxCell id="rN2n2UMtnNxQBnkrzZtM-35" value="" style="rounded=0;whiteSpace=wrap;html=1;" vertex="1" parent="1">
          <mxGeometry x="620" y="330" width="230" height="170" as="geometry" />
        </mxCell>
        <mxCell id="rN2n2UMtnNxQBnkrzZtM-36" value="Image" style="text;html=1;strokeColor=none;fillColor=none;align=center;verticalAlign=middle;whiteSpace=wrap;rounded=0;" vertex="1" parent="1">
          <mxGeometry x="660" y="370" width="110" height="60" as="geometry" />
        </mxCell>
        <mxCell id="rN2n2UMtnNxQBnkrzZtM-37" value="&lt;h1&gt;&lt;font style=&quot;font-size: 18px&quot;&gt;Heading&lt;/font&gt;&lt;/h1&gt;&lt;p&gt;Lorem ipsum dolor sit amet, consectetur adipisicing elit, sed do eiusmod tempor incididunt ut labore et dolore magna aliqua.&lt;/p&gt;" style="text;html=1;strokeColor=none;fillColor=none;spacing=5;spacingTop=-20;whiteSpace=wrap;overflow=hidden;rounded=0;" vertex="1" parent="1">
          <mxGeometry x="880" y="330" width="190" height="120" as="geometry" />
        </mxCell>
        <mxCell id="rN2n2UMtnNxQBnkrzZtM-38" value="" style="rounded=0;whiteSpace=wrap;html=1;" vertex="1" parent="1">
          <mxGeometry x="170" y="590" width="760" height="240" as="geometry" />
        </mxCell>
        <mxCell id="rN2n2UMtnNxQBnkrzZtM-39" value="" style="rounded=0;whiteSpace=wrap;html=1;" vertex="1" parent="1">
          <mxGeometry x="695" y="640" width="225" height="180" as="geometry" />
        </mxCell>
        <mxCell id="rN2n2UMtnNxQBnkrzZtM-40" value="" style="rounded=0;whiteSpace=wrap;html=1;" vertex="1" parent="1">
          <mxGeometry x="170" y="590" width="760" height="40" as="geometry" />
        </mxCell>
        <mxCell id="rN2n2UMtnNxQBnkrzZtM-41" value="&lt;font style=&quot;font-size: 18px&quot;&gt;Testimonials&lt;/font&gt;" style="text;html=1;strokeColor=none;fillColor=none;align=center;verticalAlign=middle;whiteSpace=wrap;rounded=0;" vertex="1" parent="1">
          <mxGeometry x="470" y="600" width="150" height="20" as="geometry" />
        </mxCell>
        <mxCell id="rN2n2UMtnNxQBnkrzZtM-43" value="Lorem ipsum dolor sit amet, consectetur adipisicing elit, sed do eiusmod tempor incididunt ut labore et dolore magna aliqua. Ut enim ad minim veniam, quis nostrud exercitation ullamco laboris nisi ut aliquip ex ea commodo consequat. Duis aute irure dolor in reprehenderit in voluptate velit esse cillum dolore eu fugiat nulla pariatur. Excepteur sint occaecat cupidatat non proident, sunt in culpa qui officia deserunt mollit anim id est laborum.&lt;br&gt;Sed ut perspiciatis unde omnis iste natus error sit voluptatem accusantium doloremque laudantium, totam rem aperiam, eaque ipsa quae ab illo inventore veritatis et quasi architecto beatae vitae dicta sunt explicabo. Nemo enim ipsam voluptatem quia voluptas sit aspernatur aut odit aut fugit, sed quia consequuntur magni dolores eos qui rati" style="text;spacingTop=-5;whiteSpace=wrap;html=1;align=left;fontSize=12;fontFamily=Helvetica;fillColor=none;strokeColor=none;" vertex="1" parent="1">
          <mxGeometry x="210" y="640" width="430" height="180" as="geometry" />
        </mxCell>
        <mxCell id="rN2n2UMtnNxQBnkrzZtM-45" value="Image" style="text;html=1;strokeColor=none;fillColor=none;align=center;verticalAlign=middle;whiteSpace=wrap;rounded=0;" vertex="1" parent="1">
          <mxGeometry x="740" y="690" width="110" height="60" as="geometry" />
        </mxCell>
        <mxCell id="rN2n2UMtnNxQBnkrzZtM-46" value="" style="rounded=0;whiteSpace=wrap;html=1;" vertex="1" parent="1">
          <mxGeometry x="435" y="890" width="225" height="40" as="geometry" />
        </mxCell>
        <mxCell id="rN2n2UMtnNxQBnkrzZtM-47" value="&lt;font style=&quot;font-size: 18px&quot;&gt;Highlights of local area&lt;/font&gt;" style="text;html=1;strokeColor=none;fillColor=none;align=center;verticalAlign=middle;whiteSpace=wrap;rounded=0;" vertex="1" parent="1">
          <mxGeometry x="420" y="900" width="260" height="20" as="geometry" />
        </mxCell>
        <mxCell id="rN2n2UMtnNxQBnkrzZtM-48" value="" style="rounded=0;whiteSpace=wrap;html=1;" vertex="1" parent="1">
          <mxGeometry x="90" y="960" width="910" height="1130" as="geometry" />
        </mxCell>
        <mxCell id="rN2n2UMtnNxQBnkrzZtM-49" value="" style="rounded=0;whiteSpace=wrap;html=1;" vertex="1" parent="1">
          <mxGeometry x="170" y="1000" width="770" height="260" as="geometry" />
        </mxCell>
        <mxCell id="rN2n2UMtnNxQBnkrzZtM-53" value="" style="rounded=0;whiteSpace=wrap;html=1;" vertex="1" parent="1">
          <mxGeometry x="170" y="1000" width="770" height="60" as="geometry" />
        </mxCell>
        <mxCell id="rN2n2UMtnNxQBnkrzZtM-50" value="&lt;h2 style=&quot;padding: 0px ; margin: 0px ; font-size: 24px ; color: rgb(77 , 29 , 24) ; background-color: rgba(0 , 0 , 0 , 0.2) ; font-family: &amp;#34;helvetica&amp;#34; , &amp;#34;calibri&amp;#34; , sans-serif&quot;&gt;Queenscliff-Sorrento Ferry&lt;/h2&gt;" style="text;html=1;strokeColor=none;fillColor=none;align=center;verticalAlign=middle;whiteSpace=wrap;rounded=0;" vertex="1" parent="1">
          <mxGeometry x="405" y="1020" width="315" height="20" as="geometry" />
        </mxCell>
        <mxCell id="rN2n2UMtnNxQBnkrzZtM-54" value="Lorem ipsum dolor sit amet, consectetur adipisicing elit, sed do eiusmod tempor incididunt ut labore et dolore magna aliqua. Ut enim ad minim veniam, quis nostrud exercitation ullamco laboris nisi ut aliquip ex ea commodo consequat. Duis aute irure dolor in reprehenderit in voluptate velit esse cillum dolore eu fugiat nulla pariatur. Excepteur sint" style="text;spacingTop=-5;whiteSpace=wrap;html=1;align=left;fontSize=12;fontFamily=Helvetica;fillColor=none;strokeColor=none;" vertex="1" parent="1">
          <mxGeometry x="200" y="1080" width="270" height="120" as="geometry" />
        </mxCell>
        <mxCell id="rN2n2UMtnNxQBnkrzZtM-56" value="" style="rounded=0;whiteSpace=wrap;html=1;" vertex="1" parent="1">
          <mxGeometry x="495" y="1210" width="105" height="40" as="geometry" />
        </mxCell>
        <mxCell id="rN2n2UMtnNxQBnkrzZtM-57" value="Learn More" style="text;html=1;strokeColor=none;fillColor=none;align=center;verticalAlign=middle;whiteSpace=wrap;rounded=0;" vertex="1" parent="1">
          <mxGeometry x="510" y="1220" width="75" height="20" as="geometry" />
        </mxCell>
        <mxCell id="rN2n2UMtnNxQBnkrzZtM-58" value="" style="rounded=0;whiteSpace=wrap;html=1;" vertex="1" parent="1">
          <mxGeometry x="170" y="1275" width="770" height="60" as="geometry" />
        </mxCell>
        <mxCell id="rN2n2UMtnNxQBnkrzZtM-59" value="" style="rounded=0;whiteSpace=wrap;html=1;" vertex="1" parent="1">
          <mxGeometry x="170" y="1275" width="770" height="260" as="geometry" />
        </mxCell>
        <mxCell id="rN2n2UMtnNxQBnkrzZtM-60" value="" style="rounded=0;whiteSpace=wrap;html=1;" vertex="1" parent="1">
          <mxGeometry x="170" y="1275" width="770" height="60" as="geometry" />
        </mxCell>
        <mxCell id="rN2n2UMtnNxQBnkrzZtM-61" value="&lt;h2 style=&quot;padding: 0px ; margin: 0px ; font-size: 24px ; color: rgb(77 , 29 , 24) ; background-color: rgba(0 , 0 , 0 , 0.2) ; font-family: &amp;#34;helvetica&amp;#34; , &amp;#34;calibri&amp;#34; , sans-serif&quot;&gt;Peninsula Hot Springs&lt;/h2&gt;" style="text;html=1;strokeColor=none;fillColor=none;align=center;verticalAlign=middle;whiteSpace=wrap;rounded=0;" vertex="1" parent="1">
          <mxGeometry x="403" y="1295" width="295" height="20" as="geometry" />
        </mxCell>
        <mxCell id="rN2n2UMtnNxQBnkrzZtM-62" value="Lorem ipsum dolor sit amet, consectetur adipisicing elit, sed do eiusmod tempor incididunt ut labore et dolore magna aliqua. Ut enim ad minim veniam, quis nostrud exercitation ullamco laboris nisi ut aliquip ex ea commodo consequat. Duis aute irure dolor in reprehenderit in voluptate velit esse cillum dolore eu fugiat nulla pariatur. Excepteur sint" style="text;spacingTop=-5;whiteSpace=wrap;html=1;align=left;fontSize=12;fontFamily=Helvetica;fillColor=none;strokeColor=none;" vertex="1" parent="1">
          <mxGeometry x="200" y="1355" width="270" height="120" as="geometry" />
        </mxCell>
        <mxCell id="rN2n2UMtnNxQBnkrzZtM-63" value="" style="rounded=0;whiteSpace=wrap;html=1;" vertex="1" parent="1">
          <mxGeometry x="495" y="1485" width="105" height="40" as="geometry" />
        </mxCell>
        <mxCell id="rN2n2UMtnNxQBnkrzZtM-64" value="Learn More" style="text;html=1;strokeColor=none;fillColor=none;align=center;verticalAlign=middle;whiteSpace=wrap;rounded=0;" vertex="1" parent="1">
          <mxGeometry x="510" y="1495" width="75" height="20" as="geometry" />
        </mxCell>
        <mxCell id="rN2n2UMtnNxQBnkrzZtM-65" value="" style="rounded=0;whiteSpace=wrap;html=1;" vertex="1" parent="1">
          <mxGeometry x="170" y="1550" width="770" height="60" as="geometry" />
        </mxCell>
        <mxCell id="rN2n2UMtnNxQBnkrzZtM-66" value="" style="rounded=0;whiteSpace=wrap;html=1;" vertex="1" parent="1">
          <mxGeometry x="170" y="1550" width="770" height="260" as="geometry" />
        </mxCell>
        <mxCell id="rN2n2UMtnNxQBnkrzZtM-67" value="" style="rounded=0;whiteSpace=wrap;html=1;" vertex="1" parent="1">
          <mxGeometry x="170" y="1550" width="770" height="60" as="geometry" />
        </mxCell>
        <mxCell id="rN2n2UMtnNxQBnkrzZtM-68" value="&lt;h2 style=&quot;padding: 0px ; margin: 0px ; font-size: 24px ; color: rgb(77 , 29 , 24) ; background-color: rgba(0 , 0 , 0 , 0.2) ; font-family: &amp;#34;helvetica&amp;#34; , &amp;#34;calibri&amp;#34; , sans-serif&quot;&gt;Golf&lt;/h2&gt;" style="text;html=1;strokeColor=none;fillColor=none;align=center;verticalAlign=middle;whiteSpace=wrap;rounded=0;" vertex="1" parent="1">
          <mxGeometry x="403" y="1570" width="295" height="20" as="geometry" />
        </mxCell>
        <mxCell id="rN2n2UMtnNxQBnkrzZtM-69" value="Lorem ipsum dolor sit amet, consectetur adipisicing elit, sed do eiusmod tempor incididunt ut labore et dolore magna aliqua. Ut enim ad minim veniam, quis nostrud exercitation ullamco laboris nisi ut aliquip ex ea commodo consequat. Duis aute irure dolor in reprehenderit in voluptate velit esse cillum dolore eu fugiat nulla pariatur. Excepteur sint" style="text;spacingTop=-5;whiteSpace=wrap;html=1;align=left;fontSize=12;fontFamily=Helvetica;fillColor=none;strokeColor=none;" vertex="1" parent="1">
          <mxGeometry x="200" y="1630" width="270" height="120" as="geometry" />
        </mxCell>
        <mxCell id="rN2n2UMtnNxQBnkrzZtM-70" value="" style="rounded=0;whiteSpace=wrap;html=1;" vertex="1" parent="1">
          <mxGeometry x="495" y="1760" width="105" height="40" as="geometry" />
        </mxCell>
        <mxCell id="rN2n2UMtnNxQBnkrzZtM-71" value="Learn More" style="text;html=1;strokeColor=none;fillColor=none;align=center;verticalAlign=middle;whiteSpace=wrap;rounded=0;" vertex="1" parent="1">
          <mxGeometry x="510" y="1770" width="75" height="20" as="geometry" />
        </mxCell>
        <mxCell id="rN2n2UMtnNxQBnkrzZtM-72" value="" style="rounded=0;whiteSpace=wrap;html=1;" vertex="1" parent="1">
          <mxGeometry x="130" y="1840" width="260" height="220" as="geometry" />
        </mxCell>
        <mxCell id="rN2n2UMtnNxQBnkrzZtM-73" value="" style="rounded=0;whiteSpace=wrap;html=1;" vertex="1" parent="1">
          <mxGeometry x="417.5" y="1840" width="260" height="220" as="geometry" />
        </mxCell>
        <mxCell id="rN2n2UMtnNxQBnkrzZtM-74" value="" style="rounded=0;whiteSpace=wrap;html=1;" vertex="1" parent="1">
          <mxGeometry x="698" y="1840" width="260" height="220" as="geometry" />
        </mxCell>
        <mxCell id="rN2n2UMtnNxQBnkrzZtM-75" value="" style="rounded=0;whiteSpace=wrap;html=1;" vertex="1" parent="1">
          <mxGeometry x="130" y="1840" width="260" height="30" as="geometry" />
        </mxCell>
        <mxCell id="rN2n2UMtnNxQBnkrzZtM-76" value="" style="rounded=0;whiteSpace=wrap;html=1;" vertex="1" parent="1">
          <mxGeometry x="417.5" y="1840" width="260" height="30" as="geometry" />
        </mxCell>
        <mxCell id="rN2n2UMtnNxQBnkrzZtM-77" value="" style="rounded=0;whiteSpace=wrap;html=1;" vertex="1" parent="1">
          <mxGeometry x="698" y="1840" width="260" height="30" as="geometry" />
        </mxCell>
        <mxCell id="rN2n2UMtnNxQBnkrzZtM-80" value="&lt;h2 style=&quot;padding: 0px ; margin: 0px ; color: rgb(77 , 29 , 24) ; background-color: rgba(0 , 0 , 0 , 0.2) ; font-family: &amp;#34;helvetica&amp;#34; , &amp;#34;calibri&amp;#34; , sans-serif&quot;&gt;&lt;font style=&quot;font-size: 10px&quot;&gt;Water Sports&lt;/font&gt;&lt;/h2&gt;" style="text;html=1;strokeColor=none;fillColor=none;align=center;verticalAlign=middle;whiteSpace=wrap;rounded=0;" vertex="1" parent="1">
          <mxGeometry x="215" y="1845" width="90" height="20" as="geometry" />
        </mxCell>
        <mxCell id="rN2n2UMtnNxQBnkrzZtM-81" value="&lt;h2 style=&quot;padding: 0px ; margin: 0px ; color: rgb(77 , 29 , 24) ; background-color: rgba(0 , 0 , 0 , 0.2) ; font-family: &amp;#34;helvetica&amp;#34; , &amp;#34;calibri&amp;#34; , sans-serif&quot;&gt;&lt;font style=&quot;font-size: 10px&quot;&gt;shopping&lt;/font&gt;&lt;/h2&gt;" style="text;html=1;strokeColor=none;fillColor=none;align=center;verticalAlign=middle;whiteSpace=wrap;rounded=0;" vertex="1" parent="1">
          <mxGeometry x="500" y="1845" width="90" height="20" as="geometry" />
        </mxCell>
        <mxCell id="rN2n2UMtnNxQBnkrzZtM-82" value="&lt;h2 style=&quot;padding: 0px ; margin: 0px ; color: rgb(77 , 29 , 24) ; background-color: rgba(0 , 0 , 0 , 0.2) ; font-family: &amp;#34;helvetica&amp;#34; , &amp;#34;calibri&amp;#34; , sans-serif&quot;&gt;&lt;font style=&quot;font-size: 10px&quot;&gt;walking tracks&lt;/font&gt;&lt;/h2&gt;" style="text;html=1;strokeColor=none;fillColor=none;align=center;verticalAlign=middle;whiteSpace=wrap;rounded=0;" vertex="1" parent="1">
          <mxGeometry x="770" y="1845" width="90" height="20" as="geometry" />
        </mxCell>
        <mxCell id="rN2n2UMtnNxQBnkrzZtM-84" value="" style="rounded=0;whiteSpace=wrap;html=1;" vertex="1" parent="1">
          <mxGeometry y="2170" width="1100" height="130" as="geometry" />
        </mxCell>
        <mxCell id="rN2n2UMtnNxQBnkrzZtM-87" value="&lt;b&gt;Sorrento&lt;/b&gt;" style="text;html=1;strokeColor=none;fillColor=none;align=center;verticalAlign=middle;whiteSpace=wrap;rounded=0;" vertex="1" parent="1">
          <mxGeometry x="225" y="2190" width="40" height="20" as="geometry" />
        </mxCell>
        <mxCell id="rN2n2UMtnNxQBnkrzZtM-88" value="Contact Details" style="text;html=1;strokeColor=none;fillColor=none;align=center;verticalAlign=middle;whiteSpace=wrap;rounded=0;" vertex="1" parent="1">
          <mxGeometry x="190" y="2210" width="110" height="20" as="geometry" />
        </mxCell>
        <mxCell id="rN2n2UMtnNxQBnkrzZtM-90" value="Address" style="text;html=1;strokeColor=none;fillColor=none;align=center;verticalAlign=middle;whiteSpace=wrap;rounded=0;" vertex="1" parent="1">
          <mxGeometry x="225" y="2235" width="40" height="20" as="geometry" />
        </mxCell>
        <mxCell id="rN2n2UMtnNxQBnkrzZtM-91" value="&lt;b&gt;Explore&lt;/b&gt;" style="text;html=1;strokeColor=none;fillColor=none;align=center;verticalAlign=middle;whiteSpace=wrap;rounded=0;" vertex="1" parent="1">
          <mxGeometry x="510" y="2190" width="40" height="20" as="geometry" />
        </mxCell>
        <mxCell id="rN2n2UMtnNxQBnkrzZtM-92" value="Home" style="text;html=1;strokeColor=none;fillColor=none;align=center;verticalAlign=middle;whiteSpace=wrap;rounded=0;" vertex="1" parent="1">
          <mxGeometry x="513" y="2210" width="40" height="20" as="geometry" />
        </mxCell>
        <mxCell id="rN2n2UMtnNxQBnkrzZtM-93" value="Acomodation" style="text;html=1;strokeColor=none;fillColor=none;align=center;verticalAlign=middle;whiteSpace=wrap;rounded=0;" vertex="1" parent="1">
          <mxGeometry x="488" y="2230" width="90" height="20" as="geometry" />
        </mxCell>
        <mxCell id="rN2n2UMtnNxQBnkrzZtM-94" value="Contact" style="text;html=1;strokeColor=none;fillColor=none;align=center;verticalAlign=middle;whiteSpace=wrap;rounded=0;" vertex="1" parent="1">
          <mxGeometry x="485" y="2250" width="90" height="20" as="geometry" />
        </mxCell>
        <mxCell id="rN2n2UMtnNxQBnkrzZtM-95" value="Social media links" style="text;html=1;strokeColor=none;fillColor=none;align=center;verticalAlign=middle;whiteSpace=wrap;rounded=0;" vertex="1" parent="1">
          <mxGeometry x="810" y="2190" width="110" height="20" as="geometry" />
        </mxCell>
        <mxCell id="rN2n2UMtnNxQBnkrzZtM-96" value="&lt;font style=&quot;font-size: 48px&quot;&gt;&lt;b&gt;Home Page&lt;/b&gt;&lt;/font&gt;" style="text;html=1;strokeColor=none;fillColor=none;align=center;verticalAlign=middle;whiteSpace=wrap;rounded=0;" vertex="1" parent="1">
          <mxGeometry x="250" y="-90" width="475" height="90" as="geometry" />
        </mxCell>
        <mxCell id="rN2n2UMtnNxQBnkrzZtM-98" value="" style="endArrow=none;html=1;entryX=1;entryY=0.208;entryDx=0;entryDy=0;entryPerimeter=0;" edge="1" parent="1" target="rN2n2UMtnNxQBnkrzZtM-2">
          <mxGeometry width="50" height="50" relative="1" as="geometry">
            <mxPoint x="550" y="50" as="sourcePoint" />
            <mxPoint x="600" as="targetPoint" />
          </mxGeometry>
        </mxCell>
        <mxCell id="rN2n2UMtnNxQBnkrzZtM-300" value="" style="rounded=0;whiteSpace=wrap;html=1;" vertex="1" parent="1">
          <mxGeometry x="1880" y="40" width="550" height="180" as="geometry" />
        </mxCell>
        <mxCell id="rN2n2UMtnNxQBnkrzZtM-301" value="" style="rounded=0;whiteSpace=wrap;html=1;" vertex="1" parent="1">
          <mxGeometry x="1340" y="-10" width="1100" height="970" as="geometry" />
        </mxCell>
        <mxCell id="rN2n2UMtnNxQBnkrzZtM-303" value="" style="rounded=0;whiteSpace=wrap;html=1;" vertex="1" parent="1">
          <mxGeometry x="1340" y="-10" width="550" height="240" as="geometry" />
        </mxCell>
        <mxCell id="rN2n2UMtnNxQBnkrzZtM-304" value="" style="rounded=0;whiteSpace=wrap;html=1;" vertex="1" parent="1">
          <mxGeometry x="1890" y="-10" width="550" height="240" as="geometry" />
        </mxCell>
        <mxCell id="rN2n2UMtnNxQBnkrzZtM-305" value="" style="rounded=0;whiteSpace=wrap;html=1;" vertex="1" parent="1">
          <mxGeometry x="1340" y="-10" width="550" height="70" as="geometry" />
        </mxCell>
        <mxCell id="rN2n2UMtnNxQBnkrzZtM-306" value="&lt;font style=&quot;font-size: 24px&quot;&gt;Sorrento by the sea logo&lt;/font&gt;" style="text;html=1;strokeColor=none;fillColor=none;align=center;verticalAlign=middle;whiteSpace=wrap;rounded=0;" vertex="1" parent="1">
          <mxGeometry x="1500" y="20" width="210" height="20" as="geometry" />
        </mxCell>
        <mxCell id="rN2n2UMtnNxQBnkrzZtM-307" value="" style="rounded=0;whiteSpace=wrap;html=1;" vertex="1" parent="1">
          <mxGeometry x="1430" y="70" width="360" height="140" as="geometry" />
        </mxCell>
        <mxCell id="rN2n2UMtnNxQBnkrzZtM-308" value="&lt;font style=&quot;font-size: 18px&quot;&gt;Sorrento by the sea video&lt;/font&gt;" style="text;html=1;strokeColor=none;fillColor=none;align=center;verticalAlign=middle;whiteSpace=wrap;rounded=0;" vertex="1" parent="1">
          <mxGeometry x="1560" y="120" width="100" height="50" as="geometry" />
        </mxCell>
        <mxCell id="rN2n2UMtnNxQBnkrzZtM-309" value="" style="rounded=0;whiteSpace=wrap;html=1;" vertex="1" parent="1">
          <mxGeometry x="1890" y="-10" width="550" height="40" as="geometry" />
        </mxCell>
        <mxCell id="rN2n2UMtnNxQBnkrzZtM-310" value="Home" style="text;html=1;strokeColor=none;fillColor=none;align=center;verticalAlign=middle;whiteSpace=wrap;rounded=0;" vertex="1" parent="1">
          <mxGeometry x="2060" width="40" height="20" as="geometry" />
        </mxCell>
        <mxCell id="rN2n2UMtnNxQBnkrzZtM-311" value="Home" style="text;html=1;strokeColor=none;fillColor=none;align=center;verticalAlign=middle;whiteSpace=wrap;rounded=0;" vertex="1" parent="1">
          <mxGeometry x="2120" width="40" height="20" as="geometry" />
        </mxCell>
        <mxCell id="rN2n2UMtnNxQBnkrzZtM-312" value="Home" style="text;html=1;strokeColor=none;fillColor=none;align=center;verticalAlign=middle;whiteSpace=wrap;rounded=0;" vertex="1" parent="1">
          <mxGeometry x="2180" width="40" height="20" as="geometry" />
        </mxCell>
        <mxCell id="rN2n2UMtnNxQBnkrzZtM-313" value="" style="rounded=0;whiteSpace=wrap;html=1;" vertex="1" parent="1">
          <mxGeometry x="2060" y="75" width="200" height="145" as="geometry" />
        </mxCell>
        <mxCell id="rN2n2UMtnNxQBnkrzZtM-314" value="&lt;font style=&quot;font-size: 18px&quot;&gt;Image&lt;/font&gt;" style="text;html=1;strokeColor=none;fillColor=none;align=center;verticalAlign=middle;whiteSpace=wrap;rounded=0;" vertex="1" parent="1">
          <mxGeometry x="2110" y="100" width="80" height="70" as="geometry" />
        </mxCell>
        <mxCell id="rN2n2UMtnNxQBnkrzZtM-315" value="&lt;h1&gt;Heading&lt;/h1&gt;&lt;p&gt;&lt;br&gt;&lt;/p&gt;" style="text;html=1;strokeColor=none;fillColor=none;spacing=5;spacingTop=-20;whiteSpace=wrap;overflow=hidden;rounded=0;" vertex="1" parent="1">
          <mxGeometry x="2105" y="40" width="190" height="35" as="geometry" />
        </mxCell>
        <mxCell id="rN2n2UMtnNxQBnkrzZtM-367" value="" style="rounded=0;whiteSpace=wrap;html=1;" vertex="1" parent="1">
          <mxGeometry x="1340" y="830" width="1100" height="130" as="geometry" />
        </mxCell>
        <mxCell id="rN2n2UMtnNxQBnkrzZtM-368" value="&lt;b&gt;Sorrento&lt;/b&gt;" style="text;html=1;strokeColor=none;fillColor=none;align=center;verticalAlign=middle;whiteSpace=wrap;rounded=0;" vertex="1" parent="1">
          <mxGeometry x="1595" y="850" width="40" height="20" as="geometry" />
        </mxCell>
        <mxCell id="rN2n2UMtnNxQBnkrzZtM-369" value="Contact Details" style="text;html=1;strokeColor=none;fillColor=none;align=center;verticalAlign=middle;whiteSpace=wrap;rounded=0;" vertex="1" parent="1">
          <mxGeometry x="1560" y="870" width="110" height="20" as="geometry" />
        </mxCell>
        <mxCell id="rN2n2UMtnNxQBnkrzZtM-370" value="Address" style="text;html=1;strokeColor=none;fillColor=none;align=center;verticalAlign=middle;whiteSpace=wrap;rounded=0;" vertex="1" parent="1">
          <mxGeometry x="1595" y="895" width="40" height="20" as="geometry" />
        </mxCell>
        <mxCell id="rN2n2UMtnNxQBnkrzZtM-371" value="&lt;b&gt;Explore&lt;/b&gt;" style="text;html=1;strokeColor=none;fillColor=none;align=center;verticalAlign=middle;whiteSpace=wrap;rounded=0;" vertex="1" parent="1">
          <mxGeometry x="1880" y="850" width="40" height="20" as="geometry" />
        </mxCell>
        <mxCell id="rN2n2UMtnNxQBnkrzZtM-372" value="Home" style="text;html=1;strokeColor=none;fillColor=none;align=center;verticalAlign=middle;whiteSpace=wrap;rounded=0;" vertex="1" parent="1">
          <mxGeometry x="1883" y="870" width="40" height="20" as="geometry" />
        </mxCell>
        <mxCell id="rN2n2UMtnNxQBnkrzZtM-373" value="Acomodation" style="text;html=1;strokeColor=none;fillColor=none;align=center;verticalAlign=middle;whiteSpace=wrap;rounded=0;" vertex="1" parent="1">
          <mxGeometry x="1858" y="890" width="90" height="20" as="geometry" />
        </mxCell>
        <mxCell id="rN2n2UMtnNxQBnkrzZtM-374" value="Contact" style="text;html=1;strokeColor=none;fillColor=none;align=center;verticalAlign=middle;whiteSpace=wrap;rounded=0;" vertex="1" parent="1">
          <mxGeometry x="1855" y="910" width="90" height="20" as="geometry" />
        </mxCell>
        <mxCell id="rN2n2UMtnNxQBnkrzZtM-375" value="Social media links" style="text;html=1;strokeColor=none;fillColor=none;align=center;verticalAlign=middle;whiteSpace=wrap;rounded=0;" vertex="1" parent="1">
          <mxGeometry x="2180" y="850" width="110" height="20" as="geometry" />
        </mxCell>
        <mxCell id="rN2n2UMtnNxQBnkrzZtM-376" value="&lt;font style=&quot;font-size: 48px&quot;&gt;&lt;b&gt;Home Page&lt;/b&gt;&lt;/font&gt;" style="text;html=1;strokeColor=none;fillColor=none;align=center;verticalAlign=middle;whiteSpace=wrap;rounded=0;" vertex="1" parent="1">
          <mxGeometry x="1580" y="-110" width="475" height="90" as="geometry" />
        </mxCell>
        <mxCell id="rN2n2UMtnNxQBnkrzZtM-378" value="" style="rounded=0;whiteSpace=wrap;html=1;" vertex="1" parent="1">
          <mxGeometry x="548" y="240" width="5" height="350" as="geometry" />
        </mxCell>
        <mxCell id="rN2n2UMtnNxQBnkrzZtM-380" value="" style="rounded=0;whiteSpace=wrap;html=1;" vertex="1" parent="1">
          <mxGeometry x="1380" y="270" width="240" height="390" as="geometry" />
        </mxCell>
        <mxCell id="rN2n2UMtnNxQBnkrzZtM-382" value="" style="rounded=0;whiteSpace=wrap;html=1;" vertex="1" parent="1">
          <mxGeometry x="1380" y="270" width="240" height="60" as="geometry" />
        </mxCell>
        <mxCell id="rN2n2UMtnNxQBnkrzZtM-383" value="&lt;font style=&quot;font-size: 18px&quot;&gt;Pricing&lt;/font&gt;" style="text;html=1;strokeColor=none;fillColor=none;align=center;verticalAlign=middle;whiteSpace=wrap;rounded=0;" vertex="1" parent="1">
          <mxGeometry x="1480" y="290" width="70" height="20" as="geometry" />
        </mxCell>
        <mxCell id="rN2n2UMtnNxQBnkrzZtM-384" value="&lt;h1&gt;Heading&lt;/h1&gt;&lt;p&gt;Lorem ipsum dolor sit amet, consectetur adipisicing elit, sed do eiusmod tempor incididunt ut labore et dolore magna aliqua.&lt;/p&gt;" style="text;html=1;strokeColor=none;fillColor=none;spacing=5;spacingTop=-20;whiteSpace=wrap;overflow=hidden;rounded=0;" vertex="1" parent="1">
          <mxGeometry x="1405" y="355" width="190" height="120" as="geometry" />
        </mxCell>
        <mxCell id="rN2n2UMtnNxQBnkrzZtM-385" value="&lt;h1&gt;Heading&lt;/h1&gt;&lt;p&gt;Lorem ipsum dolor sit amet, consectetur adipisicing elit, sed do eiusmod tempor incididunt ut labore et dolore magna aliqua.&lt;/p&gt;" style="text;html=1;strokeColor=none;fillColor=none;spacing=5;spacingTop=-20;whiteSpace=wrap;overflow=hidden;rounded=0;" vertex="1" parent="1">
          <mxGeometry x="1415" y="510" width="190" height="120" as="geometry" />
        </mxCell>
        <mxCell id="rN2n2UMtnNxQBnkrzZtM-386" value="" style="rounded=0;whiteSpace=wrap;html=1;" vertex="1" parent="1">
          <mxGeometry x="1655" y="270" width="180" height="140" as="geometry" />
        </mxCell>
        <mxCell id="rN2n2UMtnNxQBnkrzZtM-388" value="&lt;h1&gt;&lt;font style=&quot;font-size: 18px&quot;&gt;Contact Details&lt;/font&gt;&lt;/h1&gt;&lt;p&gt;Lorem ipsum dolor sit amet, consectetur adipisicing elit, sed do eiusmod tempor incididunt ut labore et dolore magna aliqua.&lt;/p&gt;" style="text;html=1;strokeColor=none;fillColor=none;spacing=5;spacingTop=-20;whiteSpace=wrap;overflow=hidden;rounded=0;" vertex="1" parent="1">
          <mxGeometry x="1670" y="270" width="170" height="130" as="geometry" />
        </mxCell>
        <mxCell id="rN2n2UMtnNxQBnkrzZtM-393" value="" style="rounded=0;whiteSpace=wrap;html=1;" vertex="1" parent="1">
          <mxGeometry x="1930" y="250" width="450" height="510" as="geometry" />
        </mxCell>
        <mxCell id="rN2n2UMtnNxQBnkrzZtM-395" value="" style="rounded=0;whiteSpace=wrap;html=1;" vertex="1" parent="1">
          <mxGeometry x="1930" y="250" width="450" height="60" as="geometry" />
        </mxCell>
        <mxCell id="rN2n2UMtnNxQBnkrzZtM-391" value="&lt;font style=&quot;font-size: 18px&quot;&gt;Get in contact&lt;/font&gt;" style="text;html=1;strokeColor=none;fillColor=none;align=center;verticalAlign=middle;whiteSpace=wrap;rounded=0;" vertex="1" parent="1">
          <mxGeometry x="2080" y="270" width="140" height="20" as="geometry" />
        </mxCell>
        <mxCell id="rN2n2UMtnNxQBnkrzZtM-396" value="first name" style="text;html=1;strokeColor=none;fillColor=none;align=center;verticalAlign=middle;whiteSpace=wrap;rounded=0;" vertex="1" parent="1">
          <mxGeometry x="2115" y="325" width="70" height="20" as="geometry" />
        </mxCell>
        <mxCell id="rN2n2UMtnNxQBnkrzZtM-397" value="" style="rounded=1;whiteSpace=wrap;html=1;" vertex="1" parent="1">
          <mxGeometry x="1940" y="355" width="430" height="20" as="geometry" />
        </mxCell>
        <mxCell id="rN2n2UMtnNxQBnkrzZtM-398" value="last name" style="text;html=1;strokeColor=none;fillColor=none;align=center;verticalAlign=middle;whiteSpace=wrap;rounded=0;" vertex="1" parent="1">
          <mxGeometry x="2120" y="385" width="70" height="20" as="geometry" />
        </mxCell>
        <mxCell id="rN2n2UMtnNxQBnkrzZtM-399" value="" style="rounded=1;whiteSpace=wrap;html=1;" vertex="1" parent="1">
          <mxGeometry x="1940" y="405" width="430" height="20" as="geometry" />
        </mxCell>
        <mxCell id="rN2n2UMtnNxQBnkrzZtM-400" value="Phone" style="text;html=1;strokeColor=none;fillColor=none;align=center;verticalAlign=middle;whiteSpace=wrap;rounded=0;" vertex="1" parent="1">
          <mxGeometry x="2120" y="435" width="70" height="20" as="geometry" />
        </mxCell>
        <mxCell id="rN2n2UMtnNxQBnkrzZtM-401" value="" style="rounded=1;whiteSpace=wrap;html=1;" vertex="1" parent="1">
          <mxGeometry x="1940" y="455" width="430" height="20" as="geometry" />
        </mxCell>
        <mxCell id="rN2n2UMtnNxQBnkrzZtM-402" value="Booking date start" style="text;html=1;strokeColor=none;fillColor=none;align=center;verticalAlign=middle;whiteSpace=wrap;rounded=0;" vertex="1" parent="1">
          <mxGeometry x="2100" y="480" width="110" height="20" as="geometry" />
        </mxCell>
        <mxCell id="rN2n2UMtnNxQBnkrzZtM-403" value="" style="rounded=1;whiteSpace=wrap;html=1;" vertex="1" parent="1">
          <mxGeometry x="1940" y="500" width="430" height="20" as="geometry" />
        </mxCell>
        <mxCell id="rN2n2UMtnNxQBnkrzZtM-404" value="Booking date end" style="text;html=1;strokeColor=none;fillColor=none;align=center;verticalAlign=middle;whiteSpace=wrap;rounded=0;" vertex="1" parent="1">
          <mxGeometry x="2100" y="530" width="110" height="20" as="geometry" />
        </mxCell>
        <mxCell id="rN2n2UMtnNxQBnkrzZtM-405" value="" style="rounded=1;whiteSpace=wrap;html=1;" vertex="1" parent="1">
          <mxGeometry x="1940" y="550" width="430" height="20" as="geometry" />
        </mxCell>
        <mxCell id="rN2n2UMtnNxQBnkrzZtM-406" value="Comment" style="text;html=1;strokeColor=none;fillColor=none;align=center;verticalAlign=middle;whiteSpace=wrap;rounded=0;" vertex="1" parent="1">
          <mxGeometry x="2095" y="580" width="110" height="20" as="geometry" />
        </mxCell>
        <mxCell id="rN2n2UMtnNxQBnkrzZtM-407" value="" style="rounded=1;whiteSpace=wrap;html=1;" vertex="1" parent="1">
          <mxGeometry x="1940" y="600" width="430" height="50" as="geometry" />
        </mxCell>
        <mxCell id="rN2n2UMtnNxQBnkrzZtM-408" value="" style="rounded=0;whiteSpace=wrap;html=1;" vertex="1" parent="1">
          <mxGeometry x="2105" y="670" width="100" height="40" as="geometry" />
        </mxCell>
        <mxCell id="rN2n2UMtnNxQBnkrzZtM-409" value="BOOK NOW" style="text;html=1;strokeColor=none;fillColor=none;align=center;verticalAlign=middle;whiteSpace=wrap;rounded=0;" vertex="1" parent="1">
          <mxGeometry x="2120" y="680" width="70" height="20" as="geometry" />
        </mxCell>
      </root>
    </mxGraphModel>
  </diagram>
</mxfile>
